<?xml version="1.0" standalone="no"?>
<!DOCTYPE svg PUBLIC "-//W3C//DTD SVG 20010904//EN"
 "http://www.w3.org/TR/2001/REC-SVG-20010904/DTD/svg10.dtd">
<svg version="1.0" xmlns="http://www.w3.org/2000/svg"
 width="300.000000pt" height="300.000000pt" viewBox="0 0 300.000000 300.000000"
 preserveAspectRatio="xMidYMid meet">
<metadata>
Created by potrace 1.11, written by Peter Selinger 2001-2013
</metadata>
<g transform="translate(0.000000,300.000000) scale(0.100000,-0.100000)"
fill="#000000" stroke="none">
<path d="M0 1500 l0 -1500 1500 0 1500 0 0 1500 0 1500 -1500 0 -1500 0 0
-1500z m1714 1285 c361 -63 617 -295 697 -630 18 -79 20 -110 16 -250 -5 -184
-23 -261 -88 -386 -67 -129 -178 -233 -328 -309 l-44 -22 -169 169 c-134 134
-165 169 -151 174 10 4 36 12 58 18 96 25 174 100 216 210 33 83 33 262 0 343
-28 73 -108 161 -175 195 -99 51 -122 53 -546 53 l-395 0 -225 225 -225 225
636 0 c522 0 652 -3 723 -15z m291 -1945 l640 -640 -365 0 -365 0 -640 640
-640 640 365 0 365 0 640 -640z"/>
</g>
</svg>
